<svg width="34" height="31" viewBox="0 0 34 31" fill="none" xmlns="http://www.w3.org/2000/svg">
<path d="M13.2045 0.0489197H21.1594C22.5003 0.0489197 23.6858 0.935312 24.1069 2.24948L24.7806 4.34008H29.6196C31.9063 4.34008 33.7655 6.2644 33.7655 8.63124V25.7959C33.7655 28.1627 31.9063 30.087 29.6196 30.087H4.74428C2.45432 30.087 0.598389 28.1627 0.598389 25.7959V8.63124C0.598389 6.2644 2.45432 4.34008 4.74428 4.34008H9.5833L10.257 2.24948C10.6781 0.935312 11.8635 0.0489197 13.2045 0.0489197ZM17.1819 23.6503C20.6152 23.6503 23.4008 20.7672 23.4008 17.2136C23.4008 13.5996 20.6152 10.7768 17.1819 10.7768C13.6903 10.7768 10.9631 13.5996 10.9631 17.2136C10.9631 20.7672 13.6903 23.6503 17.1819 23.6503Z" fill="white"/>
</svg>
