<svg width="72" height="72" viewBox="0 0 72 72" fill="none" xmlns="http://www.w3.org/2000/svg">
<path d="M72 36C72 55.8823 55.8823 72 36 72C16.1177 72 0 55.8823 0 36C0 16.1177 16.1177 0 36 0C55.8823 0 72 16.1177 72 36Z" fill="#878787"/>
<path d="M53.0002 39L51.5002 41.5L66.5002 55C66.5002 55 66.0002 57 61.0002 62C56.0002 67 51.5002 68.5 51.5002 68.5L43.0002 58.5L37.5002 50H33.5002L22.0002 44.5L17.5002 40L17.0002 36L18.0002 33.5L17.0002 30.5L19.0002 28.5L18.5002 24.5L20.0002 22H22.5002V17L24.0002 15H26.5002L31.5002 17L32.5002 15.5H35.0002L39.0002 16H44.0002L45.5002 17L45.0002 18.5L44.0002 19.5L47.5002 21V25.5L51.0002 27.5V31L52.0002 33L51.0002 35.5L52.5002 36L53.0002 39Z" fill="white"/>
<path d="M8.50019 55C8.10019 55.4 7.5 56.5 7 57C7 57 7 59 13.5 64C20 69 22.0001 69 22.0001 69L32.0001 52L34.5001 50L31.0001 49.5L22.0001 45L18.5001 41.5L18.0001 44C14.6668 47.8333 8.90019 54.6 8.50019 55Z" fill="white"/>
</svg>
